# Blender 3.5.1
# www.blender.org
mtllib Table.mtl
o Table
v -85.341873 -0.329514 74.519348
v -74.667786 -0.329514 74.519348
v -85.341873 6.302765 74.519348
v -74.667786 6.302765 74.519348
v -85.341873 6.302754 -74.519348
v -74.667786 6.302754 -74.519348
v -85.341873 -0.329525 -74.519348
v -74.667786 -0.329525 -74.519348
v -74.667786 -0.329515 63.001083
v -85.341873 -0.329515 63.001083
v -85.341873 6.302764 63.001083
v -74.667786 6.302764 63.001083
v -74.667786 -0.329524 -63.001083
v -85.341873 -0.329524 -63.001083
v -85.341873 6.302755 -63.001083
v -74.667786 6.302755 -63.001083
v -85.341873 -106.933327 -102.708649
v -74.667770 -106.933327 -102.708649
v -74.667770 -106.836899 -97.480675
v -85.341873 -106.836899 -97.480675
v -74.667816 -106.836548 97.815437
v -85.341843 -106.836548 97.815437
v -74.667816 -106.933304 102.722649
v -85.341843 -106.933304 102.722649
v -74.667786 -71.398697 84.971893
v -85.341873 -71.398697 84.971893
v -85.341873 -71.398697 94.005692
v -74.667786 -71.398697 94.005692
v -74.667786 -35.864117 73.986481
v -85.341873 -35.864117 73.986481
v -85.341873 -35.864113 83.434517
v -74.667786 -35.864113 83.434517
v -74.667786 -71.398712 -84.934776
v -74.667786 -71.398727 -93.809647
v -85.341873 -71.398727 -93.809662
v -85.341873 -71.398712 -84.934776
v -74.667786 -35.864124 -73.967934
v -74.667786 -35.864128 -83.336510
v -85.341873 -35.864128 -83.336510
v -85.341873 -35.864124 -73.967941
v 73.984528 -0.329514 74.519348
v 84.658615 -0.329514 74.519348
v 73.984528 6.302765 74.519348
v 84.658615 6.302765 74.519348
v 73.984528 6.302754 -74.519348
v 84.658615 6.302754 -74.519348
v 73.984528 -0.329525 -74.519348
v 84.658615 -0.329525 -74.519348
v 84.658615 -0.329515 63.001083
v 73.984528 -0.329515 63.001083
v 73.984528 6.302764 63.001083
v 84.658615 6.302764 63.001083
v 84.658615 -0.329524 -63.001083
v 73.984528 -0.329524 -63.001083
v 73.984528 6.302755 -63.001083
v 84.658615 6.302755 -63.001083
v 73.984528 -106.933327 -102.708649
v 84.658623 -106.933327 -102.708649
v 84.658623 -106.836899 -97.480675
v 73.984528 -106.836899 -97.480675
v 84.658577 -106.836548 97.815437
v 73.984558 -106.836548 97.815437
v 84.658577 -106.933304 102.722649
v 73.984558 -106.933304 102.722649
v 84.658615 -71.398697 84.971893
v 73.984528 -71.398697 84.971893
v 73.984528 -71.398697 94.005692
v 84.658615 -71.398697 94.005692
v 84.658615 -35.864117 73.986481
v 73.984528 -35.864117 73.986481
v 73.984528 -35.864113 83.434517
v 84.658615 -35.864113 83.434517
v 84.658615 -71.398712 -84.934776
v 84.658615 -71.398727 -93.809647
v 73.984528 -71.398727 -93.809662
v 73.984528 -71.398712 -84.934776
v 84.658615 -35.864124 -73.967934
v 84.658615 -35.864128 -83.336510
v 73.984528 -35.864128 -83.336510
v 73.984528 -35.864124 -73.967941
v -97.224976 3.114157 181.412460
v 97.224976 3.114157 181.412460
v -97.224976 7.605183 181.412460
v 97.224976 7.605183 181.412460
v -97.224976 7.605155 -181.412460
v 97.224976 7.605155 -181.412460
v -97.224976 3.114130 -181.412460
v 97.224976 3.114130 -181.412460
v -74.667786 6.302760 -0.000000
v -74.667786 -0.329520 0.000000
v -85.341873 -0.329520 0.000000
v -85.341873 6.302760 -0.000000
v 84.658615 6.302760 -0.000000
v 84.658615 -0.329520 0.000000
v 73.984528 -0.329520 0.000000
v 73.984528 6.302760 -0.000000
v 84.658615 6.302761 10.571808
v 84.658615 -0.329519 10.571808
v 73.984528 -0.329519 10.571808
v 73.984528 6.302761 10.571808
v -74.667786 6.302761 11.012295
v -74.667786 -0.329519 11.012295
v -85.341873 -0.329519 11.012295
v -85.341873 6.302761 11.012295
v 73.984528 6.302761 10.571808
v 73.984528 -0.329519 10.571808
v 73.984528 -0.329520 0.000000
v 73.984528 6.302760 -0.000000
vn -0.0000 -0.0000 1.0000
vn -0.0000 -0.0000 -1.0000
vn -0.0000 -0.9998 0.0184
vn 1.0000 -0.0000 -0.0000
vn -1.0000 -0.0000 -0.0000
vn -0.0000 -0.9998 -0.0197
vn -0.0000 -1.0000 -0.0000
vn -0.0000 0.2408 -0.9706
vn -0.0000 0.2618 -0.9651
vn -0.0000 -0.2949 0.9555
vn -0.0000 -0.2954 -0.9554
vn -0.0000 0.2433 0.9699
vn -0.0000 0.2643 0.9644
vn -0.0000 -0.3181 -0.9480
vn -0.0000 -0.3407 -0.9402
vn -0.0000 0.2618 0.9651
vn -0.0000 0.2382 0.9712
vn -0.0000 0.2633 -0.9647
vn -0.0000 0.2429 -0.9700
vn -0.0000 -0.3144 0.9493
vn -0.0000 -0.3337 0.9427
vn -0.0000 1.0000 -0.0000
vn 0.0030 -0.0000 1.0000
vt 0.273846 0.282969
vt 0.186286 0.964691
vt 0.273879 0.437347
vt 0.282566 0.964691
vt 0.195716 0.283034
vt 0.195749 0.437412
vt 0.186286 0.657901
vt 0.195683 0.128657
vt 0.282566 0.657901
vt 0.195782 0.591789
vt 0.273813 0.128592
vt 0.186286 0.811296
vt 0.273912 0.591724
vt 0.282566 0.811296
vt 0.273890 0.488806
vt 0.282566 0.913560
vt 0.186286 0.913560
vt 0.273835 0.231510
vt 0.195705 0.231575
vt 0.195760 0.488871
vt 0.273901 0.540265
vt 0.282566 0.862428
vt 0.273824 0.180051
vt 0.186286 0.862428
vt 0.195694 0.180116
vt 0.195771 0.540330
vt 0.186286 0.811296
vt 0.282566 0.811296
vt 0.282566 0.862428
vt 0.186286 0.862428
vt 0.282566 0.913560
vt 0.186286 0.913560
vt 0.282566 0.964691
vt 0.186286 0.964691
vt 0.282566 0.913560
vt 0.186286 0.913560
vt 0.186286 0.964691
vt 0.282566 0.964691
vt 0.282566 0.913560
vt 0.186286 0.913560
vt 0.186286 0.964691
vt 0.282566 0.964691
vt 0.282566 0.862428
vt 0.282566 0.811296
vt 0.186286 0.811296
vt 0.186286 0.862428
vt 0.282566 0.862428
vt 0.282566 0.811296
vt 0.186286 0.811296
vt 0.186286 0.862428
vt 0.273846 0.282969
vt 0.186286 0.964691
vt 0.273879 0.437347
vt 0.282566 0.964691
vt 0.195716 0.283034
vt 0.195749 0.437412
vt 0.186286 0.657901
vt 0.195683 0.128657
vt 0.282566 0.657901
vt 0.195782 0.591789
vt 0.273813 0.128592
vt 0.186286 0.811296
vt 0.273912 0.591724
vt 0.282566 0.811296
vt 0.273890 0.488806
vt 0.282566 0.913560
vt 0.186286 0.913560
vt 0.273835 0.231510
vt 0.195705 0.231575
vt 0.195760 0.488871
vt 0.273901 0.540265
vt 0.282566 0.862428
vt 0.273824 0.180051
vt 0.186286 0.862428
vt 0.195694 0.180116
vt 0.195771 0.540330
vt 0.186286 0.811296
vt 0.282566 0.811296
vt 0.282566 0.862428
vt 0.186286 0.862428
vt 0.282566 0.913560
vt 0.186286 0.913560
vt 0.282566 0.964691
vt 0.186286 0.964691
vt 0.282566 0.913560
vt 0.186286 0.913560
vt 0.186286 0.964691
vt 0.282566 0.964691
vt 0.282566 0.913560
vt 0.186286 0.913560
vt 0.186286 0.964691
vt 0.282566 0.964691
vt 0.282566 0.862428
vt 0.282566 0.811296
vt 0.186286 0.811296
vt 0.186286 0.862428
vt 0.282566 0.862428
vt 0.282566 0.811296
vt 0.186286 0.811296
vt 0.186286 0.862428
vt 0.620550 0.835626
vt 0.617246 0.204945
vt 0.729661 0.204945
vt 0.726357 0.835626
vt 0.617246 0.353475
vt 0.729661 0.353475
vt 0.620550 0.500592
vt 0.504831 0.353475
vt 0.726357 0.500592
vt 0.842076 0.353475
vt 0.504831 0.204945
vt 0.620550 0.668109
vt 0.726357 0.668109
vt 0.842076 0.204945
vt 0.195765 0.514600
vt 0.282566 0.887994
vt 0.273896 0.514535
vt 0.186286 0.887994
vt 0.273830 0.205780
vt 0.195699 0.205845
vt 0.195765 0.514600
vt 0.273896 0.514535
vt 0.282566 0.887994
vt 0.186286 0.887994
vt 0.273830 0.205780
vt 0.195699 0.205845
vt 0.195764 0.510283
vt 0.273895 0.510218
vt 0.282566 0.892284
vt 0.186286 0.892284
vt 0.273831 0.210098
vt 0.195700 0.210163
vt 0.195764 0.510103
vt 0.282566 0.892463
vt 0.273895 0.510038
vt 0.186286 0.892463
vt 0.273831 0.210278
vt 0.195700 0.210343
vt 0.195764 0.510103
vt 0.273895 0.510038
vt 0.273896 0.514535
vt 0.195765 0.514600
s 0
usemtl phong1SG
f 2/3/1 3/5/1 1/1/1
f 6/9/2 7/12/2 5/7/2
f 18/28/3 20/30/3 17/27/3
s 1
f 13/21/4 6/10/4 16/26/4
f 14/23/5 5/8/5 7/11/5
s 0
f 21/31/6 24/34/6 22/32/6
s 1
f 10/18/5 3/5/5 11/19/5
f 9/15/4 4/6/4 2/3/4
f 13/22/7 91/118/7 14/24/7
f 14/23/5 92/120/5 15/25/5
f 90/117/4 16/26/4 89/115/4
f 8/14/8 39/49/9 7/12/8
f 8/14/4 37/47/4 38/48/4
f 14/24/10 37/47/10 13/22/10
f 7/12/5 40/50/5 14/24/5
f 9/16/11 30/40/11 10/17/11
f 2/4/4 29/39/4 9/16/4
f 1/2/12 32/42/13 2/4/12
f 1/2/5 30/40/5 31/41/5
f 26/36/14 21/31/15 22/32/15
f 27/37/5 22/32/5 24/34/5
f 27/37/16 23/33/17 28/38/16
f 28/38/4 21/31/4 25/35/4
f 29/39/11 26/36/14 30/40/11
f 31/41/5 26/36/5 27/37/5
f 31/41/13 28/38/16 32/42/13
f 32/42/4 25/35/4 29/39/4
f 34/44/4 19/29/4 18/28/4
f 34/44/18 17/27/19 35/45/18
f 35/45/5 20/30/5 36/46/5
f 33/43/20 20/30/21 19/29/21
f 38/48/4 33/43/4 34/44/4
f 39/49/9 34/44/18 35/45/18
f 39/49/5 36/46/5 40/50/5
f 40/50/10 33/43/20 37/47/10
s 0
f 42/53/1 43/55/1 41/51/1
f 46/59/2 47/62/2 45/57/2
f 58/78/3 60/80/3 57/77/3
s 1
f 53/71/4 46/60/4 56/76/4
f 54/73/5 45/58/5 47/61/5
s 0
f 61/81/6 64/84/6 62/82/6
s 1
f 50/68/5 43/55/5 51/69/5
f 49/65/4 44/56/4 42/53/4
f 53/72/7 95/124/7 54/74/7
f 54/73/5 96/126/5 55/75/5
f 94/122/4 56/76/4 93/121/4
f 48/64/8 79/99/9 47/62/8
f 48/64/4 77/97/4 78/98/4
f 54/74/10 77/97/10 53/72/10
f 47/62/5 80/100/5 54/74/5
f 49/66/11 70/90/11 50/67/11
f 42/54/4 69/89/4 49/66/4
f 41/52/12 72/92/13 42/54/12
f 41/52/5 70/90/5 71/91/5
f 66/86/14 61/81/15 62/82/15
f 67/87/5 62/82/5 64/84/5
f 67/87/16 63/83/17 68/88/16
f 68/88/4 61/81/4 65/85/4
f 69/89/11 66/86/14 70/90/11
f 71/91/5 66/86/5 67/87/5
f 71/91/13 68/88/16 72/92/13
f 72/92/4 65/85/4 69/89/4
f 74/94/4 59/79/4 58/78/4
f 74/94/18 57/77/19 75/95/18
f 75/95/5 60/80/5 76/96/5
f 73/93/20 60/80/21 59/79/21
f 78/98/4 73/93/4 74/94/4
f 79/99/9 74/94/18 75/95/18
f 79/99/5 76/96/5 80/100/5
f 80/100/10 73/93/20 77/97/10
s 0
f 82/103/1 83/105/1 81/102/1
f 84/106/22 85/107/22 83/105/22
f 86/109/2 87/112/2 85/107/2
f 88/113/7 81/101/7 87/112/7
f 88/114/4 84/106/4 82/103/4
f 81/102/5 85/108/5 87/111/5
f 106/140/4 108/142/4 105/139/4
s 1
f 90/116/7 103/136/7 91/118/7
f 91/119/5 104/138/5 92/120/5
f 98/128/4 93/121/4 97/127/4
f 94/123/7 99/130/7 95/124/7
f 49/65/4 97/127/4 52/70/4
f 98/129/7 50/67/7 99/130/7
f 99/131/5 51/69/5 100/132/5
f 9/15/4 101/133/4 12/20/4
f 102/134/7 10/17/7 103/136/7
f 103/137/5 11/19/5 104/138/5
s 0
f 102/135/23 105/139/23 101/133/23
s 1
f 90/117/7 106/140/7 102/135/7
s 0
f 89/115/2 107/141/2 90/117/2
f 89/115/22 105/139/22 108/142/22
f 2/3/1 4/6/1 3/5/1
f 6/9/2 8/14/2 7/12/2
f 18/28/3 19/29/3 20/30/3
s 1
f 13/21/4 8/13/4 6/10/4
f 14/23/5 15/25/5 5/8/5
s 0
f 21/31/6 23/33/6 24/34/6
s 1
f 10/18/5 1/1/5 3/5/5
f 9/15/4 12/20/4 4/6/4
f 13/22/7 90/116/7 91/118/7
f 14/23/5 91/119/5 92/120/5
f 90/117/4 13/21/4 16/26/4
f 8/14/8 38/48/9 39/49/9
f 8/14/4 13/22/4 37/47/4
f 14/24/10 40/50/10 37/47/10
f 7/12/5 39/49/5 40/50/5
f 9/16/11 29/39/11 30/40/11
f 2/4/4 32/42/4 29/39/4
f 1/2/12 31/41/13 32/42/13
f 1/2/5 10/17/5 30/40/5
f 26/36/14 25/35/14 21/31/15
f 27/37/5 26/36/5 22/32/5
f 27/37/16 24/34/17 23/33/17
f 28/38/4 23/33/4 21/31/4
f 29/39/11 25/35/14 26/36/14
f 31/41/5 30/40/5 26/36/5
f 31/41/13 27/37/16 28/38/16
f 32/42/4 28/38/4 25/35/4
f 34/44/4 33/43/4 19/29/4
f 34/44/18 18/28/19 17/27/19
f 35/45/5 17/27/5 20/30/5
f 33/43/20 36/46/20 20/30/21
f 38/48/4 37/47/4 33/43/4
f 39/49/9 38/48/9 34/44/18
f 39/49/5 35/45/5 36/46/5
f 40/50/10 36/46/20 33/43/20
s 0
f 42/53/1 44/56/1 43/55/1
f 46/59/2 48/64/2 47/62/2
f 58/78/3 59/79/3 60/80/3
s 1
f 53/71/4 48/63/4 46/60/4
f 54/73/5 55/75/5 45/58/5
s 0
f 61/81/6 63/83/6 64/84/6
s 1
f 50/68/5 41/51/5 43/55/5
f 49/65/4 52/70/4 44/56/4
f 53/72/7 94/123/7 95/124/7
f 54/73/5 95/125/5 96/126/5
f 94/122/4 53/71/4 56/76/4
f 48/64/8 78/98/9 79/99/9
f 48/64/4 53/72/4 77/97/4
f 54/74/10 80/100/10 77/97/10
f 47/62/5 79/99/5 80/100/5
f 49/66/11 69/89/11 70/90/11
f 42/54/4 72/92/4 69/89/4
f 41/52/12 71/91/13 72/92/13
f 41/52/5 50/67/5 70/90/5
f 66/86/14 65/85/14 61/81/15
f 67/87/5 66/86/5 62/82/5
f 67/87/16 64/84/17 63/83/17
f 68/88/4 63/83/4 61/81/4
f 69/89/11 65/85/14 66/86/14
f 71/91/5 70/90/5 66/86/5
f 71/91/13 67/87/16 68/88/16
f 72/92/4 68/88/4 65/85/4
f 74/94/4 73/93/4 59/79/4
f 74/94/18 58/78/19 57/77/19
f 75/95/5 57/77/5 60/80/5
f 73/93/20 76/96/20 60/80/21
f 78/98/4 77/97/4 73/93/4
f 79/99/9 78/98/9 74/94/18
f 79/99/5 75/95/5 76/96/5
f 80/100/10 76/96/20 73/93/20
s 0
f 82/103/1 84/106/1 83/105/1
f 84/106/22 86/109/22 85/107/22
f 86/109/2 88/113/2 87/112/2
f 88/113/7 82/104/7 81/101/7
f 88/114/4 86/110/4 84/106/4
f 81/102/5 83/105/5 85/108/5
f 106/140/4 107/141/4 108/142/4
s 1
f 90/116/7 102/134/7 103/136/7
f 91/119/5 103/137/5 104/138/5
f 98/128/4 94/122/4 93/121/4
f 94/123/7 98/129/7 99/130/7
f 49/65/4 98/128/4 97/127/4
f 98/129/7 49/66/7 50/67/7
f 99/131/5 50/68/5 51/69/5
f 9/15/4 102/135/4 101/133/4
f 102/134/7 9/16/7 10/17/7
f 103/137/5 10/18/5 11/19/5
s 0
f 102/135/23 106/140/23 105/139/23
s 1
f 90/117/7 107/141/7 106/140/7
s 0
f 89/115/2 108/142/2 107/141/2
f 89/115/22 101/133/22 105/139/22
